<svg xmlns="http://www.w3.org/2000/svg" xmlns:xlink="http://www.w3.org/1999/xlink" width="500" zoomAndPan="magnify" viewBox="0 0 375 374.999991" height="500" preserveAspectRatio="xMidYMid meet" version="1.0"><defs><g/><clipPath id="9c79a39f2a"><path d="M 146 103 L 224 103 L 224 206 L 146 206 Z M 146 103 " clip-rule="nonzero"/></clipPath><clipPath id="f1ef287f48"><path d="M 199.957031 103.375 L 223.402344 117.523438 L 170.421875 205.308594 L 146.980469 191.160156 Z M 199.957031 103.375 " clip-rule="nonzero"/></clipPath><clipPath id="1a518ec309"><path d="M 149 117 L 202 117 L 202 170 L 149 170 Z M 149 117 " clip-rule="nonzero"/></clipPath><clipPath id="8494a9f728"><path d="M 169.070312 117.355469 L 201.015625 136.632812 L 181.371094 169.183594 L 149.425781 149.902344 Z M 169.070312 117.355469 " clip-rule="nonzero"/></clipPath><clipPath id="65f04a23cd"><path d="M 186 120 L 237 120 L 237 170 L 186 170 Z M 186 120 " clip-rule="nonzero"/></clipPath><clipPath id="0f5476797e"><path d="M 204.335938 120.828125 L 236.28125 140.105469 L 218.734375 169.179688 L 186.789062 149.902344 Z M 204.335938 120.828125 " clip-rule="nonzero"/></clipPath></defs><g fill="#3d3b3a" fill-opacity="1"><g transform="translate(12.479609, 304.910611)"><g><path d="M 24.3125 -24.453125 L 13.484375 0 L 10.9375 0 L 0.109375 -24.453125 L 2.90625 -24.453125 L 12.265625 -3.21875 L 21.703125 -24.453125 Z M 24.3125 -24.453125 "/></g></g></g><g fill="#3d3b3a" fill-opacity="1"><g transform="translate(47.340748, 304.910611)"><g><path d="M 3.984375 -24.453125 L 6.5625 -24.453125 L 6.5625 0 L 3.984375 0 Z M 3.984375 -24.453125 "/></g></g></g><g fill="#3d3b3a" fill-opacity="1"><g transform="translate(68.371896, 304.910611)"><g><path d="M 3.984375 -24.453125 L 13.9375 -24.453125 C 16.519531 -24.453125 18.800781 -23.929688 20.78125 -22.890625 C 22.757812 -21.859375 24.296875 -20.414062 25.390625 -18.5625 C 26.492188 -16.71875 27.046875 -14.609375 27.046875 -12.234375 C 27.046875 -9.859375 26.492188 -7.742188 25.390625 -5.890625 C 24.296875 -4.035156 22.757812 -2.585938 20.78125 -1.546875 C 18.800781 -0.515625 16.519531 0 13.9375 0 L 3.984375 0 Z M 13.796875 -2.234375 C 15.941406 -2.234375 17.816406 -2.65625 19.421875 -3.5 C 21.023438 -4.351562 22.269531 -5.53125 23.15625 -7.03125 C 24.039062 -8.539062 24.484375 -10.273438 24.484375 -12.234375 C 24.484375 -14.179688 24.039062 -15.90625 23.15625 -17.40625 C 22.269531 -18.914062 21.023438 -20.09375 19.421875 -20.9375 C 17.816406 -21.789062 15.941406 -22.21875 13.796875 -22.21875 L 6.5625 -22.21875 L 6.5625 -2.234375 Z M 13.796875 -2.234375 "/></g></g></g><g fill="#3d3b3a" fill-opacity="1"><g transform="translate(107.703341, 304.910611)"><g><path d="M 21.28125 -2.234375 L 21.28125 0 L 3.984375 0 L 3.984375 -24.453125 L 20.75 -24.453125 L 20.75 -22.21875 L 6.5625 -22.21875 L 6.5625 -13.515625 L 19.21875 -13.515625 L 19.21875 -11.3125 L 6.5625 -11.3125 L 6.5625 -2.234375 Z M 21.28125 -2.234375 "/></g></g></g><g fill="#3d3b3a" fill-opacity="1"><g transform="translate(141.55166, 304.910611)"><g><path d="M 14.671875 0.203125 C 12.253906 0.203125 10.0625 -0.335938 8.09375 -1.421875 C 6.125 -2.503906 4.582031 -3.988281 3.46875 -5.875 C 2.363281 -7.757812 1.8125 -9.878906 1.8125 -12.234375 C 1.8125 -14.578125 2.363281 -16.691406 3.46875 -18.578125 C 4.582031 -20.472656 6.125 -21.960938 8.09375 -23.046875 C 10.0625 -24.128906 12.253906 -24.671875 14.671875 -24.671875 C 17.097656 -24.671875 19.28125 -24.132812 21.21875 -23.0625 C 23.164062 -21.988281 24.695312 -20.5 25.8125 -18.59375 C 26.9375 -16.695312 27.5 -14.578125 27.5 -12.234375 C 27.5 -9.878906 26.9375 -7.75 25.8125 -5.84375 C 24.695312 -3.945312 23.164062 -2.460938 21.21875 -1.390625 C 19.28125 -0.328125 17.097656 0.203125 14.671875 0.203125 Z M 14.671875 -2.09375 C 16.609375 -2.09375 18.351562 -2.53125 19.90625 -3.40625 C 21.46875 -4.28125 22.691406 -5.488281 23.578125 -7.03125 C 24.460938 -8.582031 24.90625 -10.316406 24.90625 -12.234375 C 24.90625 -14.140625 24.460938 -15.863281 23.578125 -17.40625 C 22.691406 -18.957031 21.46875 -20.171875 19.90625 -21.046875 C 18.351562 -21.921875 16.609375 -22.359375 14.671875 -22.359375 C 12.742188 -22.359375 10.992188 -21.921875 9.421875 -21.046875 C 7.847656 -20.171875 6.609375 -18.957031 5.703125 -17.40625 C 4.804688 -15.863281 4.359375 -14.140625 4.359375 -12.234375 C 4.359375 -10.316406 4.804688 -8.582031 5.703125 -7.03125 C 6.609375 -5.488281 7.847656 -4.28125 9.421875 -3.40625 C 10.992188 -2.53125 12.742188 -2.09375 14.671875 -2.09375 Z M 14.671875 -2.09375 "/></g></g></g><g fill="#3d3b3a" fill-opacity="1"><g transform="translate(181.33711, 304.910611)"><g/></g></g><g fill="#3d3b3a" fill-opacity="1"><g transform="translate(200.971277, 304.910611)"><g><path d="M 10.71875 0.203125 C 8.90625 0.203125 7.164062 -0.0820312 5.5 -0.65625 C 3.832031 -1.238281 2.546875 -2.007812 1.640625 -2.96875 L 2.65625 -4.96875 C 3.539062 -4.082031 4.71875 -3.363281 6.1875 -2.8125 C 7.65625 -2.257812 9.164062 -1.984375 10.71875 -1.984375 C 12.914062 -1.984375 14.5625 -2.382812 15.65625 -3.1875 C 16.75 -4 17.296875 -5.046875 17.296875 -6.328125 C 17.296875 -7.304688 17 -8.082031 16.40625 -8.65625 C 15.8125 -9.238281 15.082031 -9.6875 14.21875 -10 C 13.351562 -10.320312 12.15625 -10.671875 10.625 -11.046875 C 8.78125 -11.503906 7.3125 -11.945312 6.21875 -12.375 C 5.125 -12.8125 4.1875 -13.472656 3.40625 -14.359375 C 2.625 -15.242188 2.234375 -16.441406 2.234375 -17.953125 C 2.234375 -19.191406 2.554688 -20.316406 3.203125 -21.328125 C 3.859375 -22.335938 4.863281 -23.144531 6.21875 -23.75 C 7.570312 -24.363281 9.25 -24.671875 11.25 -24.671875 C 12.644531 -24.671875 14.007812 -24.476562 15.34375 -24.09375 C 16.6875 -23.707031 17.847656 -23.175781 18.828125 -22.5 L 17.953125 -20.4375 C 16.929688 -21.113281 15.835938 -21.617188 14.671875 -21.953125 C 13.503906 -22.296875 12.363281 -22.46875 11.25 -22.46875 C 9.101562 -22.46875 7.488281 -22.050781 6.40625 -21.21875 C 5.320312 -20.394531 4.78125 -19.332031 4.78125 -18.03125 C 4.78125 -17.050781 5.078125 -16.265625 5.671875 -15.671875 C 6.265625 -15.078125 7.007812 -14.617188 7.90625 -14.296875 C 8.8125 -13.984375 10.019531 -13.644531 11.53125 -13.28125 C 13.320312 -12.832031 14.769531 -12.390625 15.875 -11.953125 C 16.976562 -11.523438 17.914062 -10.875 18.6875 -10 C 19.457031 -9.132812 19.84375 -7.957031 19.84375 -6.46875 C 19.84375 -5.226562 19.507812 -4.101562 18.84375 -3.09375 C 18.1875 -2.082031 17.171875 -1.28125 15.796875 -0.6875 C 14.421875 -0.09375 12.726562 0.203125 10.71875 0.203125 Z M 10.71875 0.203125 "/></g></g></g><g fill="#3d3b3a" fill-opacity="1"><g transform="translate(232.9337, 304.910611)"><g><path d="M 21.28125 -2.234375 L 21.28125 0 L 3.984375 0 L 3.984375 -24.453125 L 20.75 -24.453125 L 20.75 -22.21875 L 6.5625 -22.21875 L 6.5625 -13.515625 L 19.21875 -13.515625 L 19.21875 -11.3125 L 6.5625 -11.3125 L 6.5625 -2.234375 Z M 21.28125 -2.234375 "/></g></g></g><g fill="#3d3b3a" fill-opacity="1"><g transform="translate(266.782019, 304.910611)"><g><path d="M 24.421875 -24.453125 L 24.421875 0 L 22.296875 0 L 6.5625 -19.84375 L 6.5625 0 L 3.984375 0 L 3.984375 -24.453125 L 6.109375 -24.453125 L 21.875 -4.609375 L 21.875 -24.453125 Z M 24.421875 -24.453125 "/></g></g></g><g fill="#3d3b3a" fill-opacity="1"><g transform="translate(305.659438, 304.910611)"><g><path d="M 10.71875 0.203125 C 8.90625 0.203125 7.164062 -0.0820312 5.5 -0.65625 C 3.832031 -1.238281 2.546875 -2.007812 1.640625 -2.96875 L 2.65625 -4.96875 C 3.539062 -4.082031 4.71875 -3.363281 6.1875 -2.8125 C 7.65625 -2.257812 9.164062 -1.984375 10.71875 -1.984375 C 12.914062 -1.984375 14.5625 -2.382812 15.65625 -3.1875 C 16.75 -4 17.296875 -5.046875 17.296875 -6.328125 C 17.296875 -7.304688 17 -8.082031 16.40625 -8.65625 C 15.8125 -9.238281 15.082031 -9.6875 14.21875 -10 C 13.351562 -10.320312 12.15625 -10.671875 10.625 -11.046875 C 8.78125 -11.503906 7.3125 -11.945312 6.21875 -12.375 C 5.125 -12.8125 4.1875 -13.472656 3.40625 -14.359375 C 2.625 -15.242188 2.234375 -16.441406 2.234375 -17.953125 C 2.234375 -19.191406 2.554688 -20.316406 3.203125 -21.328125 C 3.859375 -22.335938 4.863281 -23.144531 6.21875 -23.75 C 7.570312 -24.363281 9.25 -24.671875 11.25 -24.671875 C 12.644531 -24.671875 14.007812 -24.476562 15.34375 -24.09375 C 16.6875 -23.707031 17.847656 -23.175781 18.828125 -22.5 L 17.953125 -20.4375 C 16.929688 -21.113281 15.835938 -21.617188 14.671875 -21.953125 C 13.503906 -22.296875 12.363281 -22.46875 11.25 -22.46875 C 9.101562 -22.46875 7.488281 -22.050781 6.40625 -21.21875 C 5.320312 -20.394531 4.78125 -19.332031 4.78125 -18.03125 C 4.78125 -17.050781 5.078125 -16.265625 5.671875 -15.671875 C 6.265625 -15.078125 7.007812 -14.617188 7.90625 -14.296875 C 8.8125 -13.984375 10.019531 -13.644531 11.53125 -13.28125 C 13.320312 -12.832031 14.769531 -12.390625 15.875 -11.953125 C 16.976562 -11.523438 17.914062 -10.875 18.6875 -10 C 19.457031 -9.132812 19.84375 -7.957031 19.84375 -6.46875 C 19.84375 -5.226562 19.507812 -4.101562 18.84375 -3.09375 C 18.1875 -2.082031 17.171875 -1.28125 15.796875 -0.6875 C 14.421875 -0.09375 12.726562 0.203125 10.71875 0.203125 Z M 10.71875 0.203125 "/></g></g></g><g fill="#3d3b3a" fill-opacity="1"><g transform="translate(337.621861, 304.910611)"><g><path d="M 21.28125 -2.234375 L 21.28125 0 L 3.984375 0 L 3.984375 -24.453125 L 20.75 -24.453125 L 20.75 -22.21875 L 6.5625 -22.21875 L 6.5625 -13.515625 L 19.21875 -13.515625 L 19.21875 -11.3125 L 6.5625 -11.3125 L 6.5625 -2.234375 Z M 21.28125 -2.234375 "/></g></g></g><g fill="#3d3b3a" fill-opacity="1"><g transform="translate(113.064534, 153.173406)"><g><path d="M 104.375 -97.515625 C 104.6875 -97.515625 104.84375 -97.203125 104.84375 -96.578125 C 104.84375 -95.953125 104.6875 -95.640625 104.375 -95.640625 C 100.832031 -95.640625 97.757812 -94.703125 95.15625 -92.828125 C 92.5625 -90.953125 90.378906 -87.78125 88.609375 -83.3125 L 55.390625 -0.15625 C 55.285156 0.257812 54.710938 0.46875 53.671875 0.46875 C 52.835938 0.46875 52.265625 0.257812 51.953125 -0.15625 L 13.109375 -84.5625 C 11.335938 -88.613281 9.460938 -91.472656 7.484375 -93.140625 C 5.515625 -94.804688 2.96875 -95.640625 -0.15625 -95.640625 C -0.46875 -95.640625 -0.625 -95.953125 -0.625 -96.578125 C -0.625 -97.203125 -0.46875 -97.515625 -0.15625 -97.515625 L 5.765625 -97.359375 C 8.679688 -97.148438 11.023438 -97.046875 12.796875 -97.046875 C 16.953125 -97.046875 21.421875 -97.148438 26.203125 -97.359375 L 32.609375 -97.515625 C 32.921875 -97.515625 33.078125 -97.203125 33.078125 -96.578125 C 33.078125 -95.953125 32.921875 -95.640625 32.609375 -95.640625 C 26.160156 -95.640625 22.9375 -93.816406 22.9375 -90.171875 C 22.9375 -88.929688 23.40625 -87.269531 24.34375 -85.1875 L 56.953125 -13.734375 L 85.03125 -84.09375 C 85.863281 -86.28125 86.28125 -87.992188 86.28125 -89.234375 C 86.28125 -91.421875 85.289062 -93.035156 83.3125 -94.078125 C 81.332031 -95.117188 78.265625 -95.640625 74.109375 -95.640625 C 73.796875 -95.640625 73.640625 -95.953125 73.640625 -96.578125 C 73.640625 -97.203125 73.796875 -97.515625 74.109375 -97.515625 L 80.8125 -97.359375 C 84.351562 -97.148438 87.578125 -97.046875 90.484375 -97.046875 C 92.671875 -97.046875 95.117188 -97.148438 97.828125 -97.359375 Z M 104.375 -97.515625 "/></g></g></g><g fill="#3d3b3a" fill-opacity="1"><g transform="translate(184.691859, 229.358762)"><g><path d="M 22.625 -79.25 C 22.625 -75.195312 23.609375 -71.660156 25.578125 -68.640625 C 27.554688 -65.628906 29.972656 -63.109375 32.828125 -61.078125 C 35.691406 -59.046875 39.625 -56.523438 44.625 -53.515625 C 50.132812 -50.179688 54.367188 -47.421875 57.328125 -45.234375 C 60.296875 -43.054688 62.84375 -40.273438 64.96875 -36.890625 C 67.101562 -33.515625 68.171875 -29.488281 68.171875 -24.8125 C 68.171875 -19.8125 66.921875 -15.285156 64.421875 -11.234375 C 61.929688 -7.179688 58.269531 -3.984375 53.4375 -1.640625 C 48.601562 0.703125 42.804688 1.875 36.046875 1.875 C 28.035156 1.875 20.703125 0.0507812 14.046875 -3.59375 C 13.523438 -3.90625 13.1875 -4.265625 13.03125 -4.671875 C 12.875 -5.085938 12.742188 -5.710938 12.640625 -6.546875 L 10.609375 -27.765625 C 10.503906 -28.179688 10.738281 -28.441406 11.3125 -28.546875 C 11.882812 -28.648438 12.222656 -28.492188 12.328125 -28.078125 C 13.992188 -20.585938 17.085938 -14.140625 21.609375 -8.734375 C 26.128906 -3.328125 32.132812 -0.625 39.625 -0.625 C 44.820312 -0.625 49.210938 -2.050781 52.796875 -4.90625 C 56.390625 -7.769531 58.1875 -12.320312 58.1875 -18.5625 C 58.1875 -23.25 57.144531 -27.304688 55.0625 -30.734375 C 52.988281 -34.171875 50.46875 -37.003906 47.5 -39.234375 C 44.539062 -41.472656 40.515625 -44.097656 35.421875 -47.109375 C 30.421875 -50.128906 26.488281 -52.726562 23.625 -54.90625 C 20.769531 -57.09375 18.351562 -59.847656 16.375 -63.171875 C 14.40625 -66.503906 13.421875 -70.410156 13.421875 -74.890625 C 13.421875 -80.085938 14.796875 -84.53125 17.546875 -88.21875 C 20.304688 -91.914062 23.894531 -94.671875 28.3125 -96.484375 C 32.738281 -98.304688 37.445312 -99.21875 42.4375 -99.21875 C 48.570312 -99.21875 54.65625 -97.972656 60.6875 -95.484375 C 62.25 -94.960938 63.03125 -94.078125 63.03125 -92.828125 L 64.125 -74.890625 C 64.125 -74.472656 63.863281 -74.265625 63.34375 -74.265625 C 62.820312 -74.265625 62.507812 -74.472656 62.40625 -74.890625 C 61.570312 -80.296875 59.332031 -85.3125 55.6875 -89.9375 C 52.050781 -94.570312 46.800781 -96.890625 39.9375 -96.890625 C 34.113281 -96.890625 29.769531 -95.195312 26.90625 -91.8125 C 24.050781 -88.4375 22.625 -84.25 22.625 -79.25 Z M 22.625 -79.25 "/></g></g></g><g clip-path="url(#9c79a39f2a)"><g clip-path="url(#f1ef287f48)"><path fill="#ffffff" d="M 199.957031 103.375 L 223.402344 117.523438 L 170.398438 205.347656 L 146.957031 191.199219 Z M 199.957031 103.375 " fill-opacity="1" fill-rule="nonzero"/></g></g><g clip-path="url(#1a518ec309)"><g clip-path="url(#8494a9f728)"><path fill="#ffffff" d="M 169.070312 117.355469 L 201.015625 136.632812 L 181.359375 169.203125 L 149.414062 149.921875 Z M 169.070312 117.355469 " fill-opacity="1" fill-rule="nonzero"/></g></g><g clip-path="url(#65f04a23cd)"><g clip-path="url(#0f5476797e)"><path fill="#ffffff" d="M 204.335938 120.828125 L 236.25 140.085938 L 218.703125 169.160156 L 186.789062 149.902344 Z M 204.335938 120.828125 " fill-opacity="1" fill-rule="nonzero"/></g></g><path stroke-linecap="butt" transform="matrix(0.431053, -0.613753, 0.613753, 0.431053, 137.539639, 217.131754)" fill="none" stroke-linejoin="miter" d="M 0.00159181 1.499971 L 226.9351 1.499832 " stroke="#3d3b3a" stroke-width="3" stroke-opacity="1" stroke-miterlimit="4"/></svg>